<svg xmlns="http://www.w3.org/2000/svg" width="32" height="32" viewBox="0 0 32 32">

  <!-- Background -->
  <rect x="0" y="0" width="32" height="32" rx="7" fill="#DDF5E1"/>

  <!-- QR outer frame -->
  <rect x="3" y="3" width="26" height="26" rx="4" fill="none" stroke="#1F5F2E" stroke-width="2"/>

  <!-- TL corner -->
  <rect x="5.5" y="5.5" width="8" height="8" rx="1.5" fill="none" stroke="#1F5F2E" stroke-width="1.5"/>
  <rect x="7" y="7" width="5" height="5" rx="1" fill="#1F5F2E"/>

  <!-- TR corner -->
  <rect x="18.5" y="5.5" width="8" height="8" rx="1.5" fill="none" stroke="#1F5F2E" stroke-width="1.5"/>
  <rect x="20" y="7" width="5" height="5" rx="1" fill="#1F5F2E"/>

  <!-- BL corner -->
  <rect x="5.5" y="18.5" width="8" height="8" rx="1.5" fill="none" stroke="#1F5F2E" stroke-width="1.5"/>
  <rect x="7" y="20" width="5" height="5" rx="1" fill="#1F5F2E"/>

  <!-- Leaf (replaces BR data) -->
  <path d="M17 19 C17 13 21 10 26 10 C26 16 23 20 17 19Z" fill="#1F5F2E"/>

  <!-- Small green dots -->
  <rect x="19" y="21" width="3" height="3" rx="0.5" fill="#6FCF97"/>
  <rect x="24" y="21" width="3" height="3" rx="0.5" fill="#6FCF97"/>
  <rect x="19" y="25" width="3" height="3" rx="0.5" fill="#6FCF97"/>

</svg>
